<?xml version="1.0" encoding="UTF-8" standalone="no"?> <svg width="64" height="64" viewBox="0 0 64 64" fill="none" xmlns="http://www.w3.org/2000/svg">
<path d="M7 20H53C54.0609 20 55.0783 20.4214 55.8284 21.1716C56.5786 21.9217 57 22.9391 57 24V32H3V24C3 22.9391 3.42143 21.9217 4.17157 21.1716C4.92172 20.4214 5.93913 20 7 20V20Z" fill="#79BD9A"/>
<path d="M41 24C45.9706 24 50 19.9706 50 15C50 10.0294 45.9706 6 41 6C36.0294 6 32 10.0294 32 15C32 19.9706 36.0294 24 41 24Z" fill="white"/>
<path d="M41 20C43.7614 20 46 17.7614 46 15C46 12.2386 43.7614 10 41 10C38.2386 10 36 12.2386 36 15C36 17.7614 38.2386 20 41 20Z" fill="white"/>
<path d="M49.35 18.35C48.7966 19.7325 47.9088 20.9561 46.7662 21.9111C45.6236 22.8661 44.2618 23.5227 42.8031 23.8219C41.3443 24.1212 39.834 24.0537 38.4077 23.6257C36.9814 23.1977 35.6835 22.4225 34.6305 21.3695C33.5775 20.3165 32.8023 19.0186 32.3743 17.5923C31.9463 16.166 31.8788 14.6557 32.1781 13.197C32.4773 11.7382 33.1339 10.3764 34.0889 9.23381C35.0439 8.09119 36.2675 7.20339 37.65 6.65C37.2189 7.71418 36.9982 8.85183 37 10C37 12.3869 37.9482 14.6761 39.636 16.364C41.3239 18.0518 43.6131 19 46 19C47.1482 19.0018 48.2858 18.7811 49.35 18.35V18.35Z" fill="#CFF09E"/>
<path d="M41 10C40.0111 10 39.0444 10.2932 38.2222 10.8427C37.3999 11.3921 36.759 12.173 36.3806 13.0866C36.0022 14.0002 35.9031 15.0055 36.0961 15.9755C36.289 16.9454 36.7652 17.8363 37.4645 18.5355C38.1637 19.2348 39.0546 19.711 40.0245 19.9039C40.9945 20.0969 41.9998 19.9978 42.9134 19.6194C43.8271 19.241 44.6079 18.6001 45.1574 17.7779C45.7068 16.9556 46 15.9889 46 15C46 13.6739 45.4732 12.4021 44.5355 11.4645C43.5979 10.5268 42.3261 10 41 10V10ZM43.69 18.69C42.16 18.2803 40.7649 17.475 39.6449 16.3551C38.525 15.2351 37.7197 13.84 37.31 12.31C38.2007 11.9793 39.1677 11.9113 40.0959 12.114C41.0242 12.3166 41.8748 12.7815 42.5466 13.4534C43.2185 14.1252 43.6834 14.9758 43.886 15.9041C44.0887 16.8323 44.0207 17.7993 43.69 18.69Z" fill="#CFF09E"/>
<path d="M23 31C30.732 31 37 24.732 37 17C37 9.26801 30.732 3 23 3C15.268 3 9 9.26801 9 17C9 24.732 15.268 31 23 31Z" fill="white"/>
<path d="M23 27C28.5228 27 33 22.5228 33 17C33 11.4772 28.5228 7 23 7C17.4772 7 13 11.4772 13 17C13 22.5228 17.4772 27 23 27Z" fill="white"/>
<path d="M35.75 22.77C34.8181 24.8347 33.399 26.6424 31.6147 28.0379C29.8304 29.4335 27.7341 30.3753 25.5057 30.7824C23.2774 31.1895 20.9835 31.0498 18.821 30.3753C16.6585 29.7008 14.6919 28.5116 13.0902 26.9098C11.4884 25.3081 10.2992 23.3415 9.6247 21.179C8.95019 19.0165 8.81049 16.7226 9.21761 14.4943C9.62472 12.2659 10.5665 10.1696 11.962 8.38527C13.3576 6.60096 15.1653 5.18194 17.23 4.25C16.0643 6.84178 15.7145 9.72685 16.227 12.5221C16.7396 15.3174 18.0904 17.8906 20.0999 19.9001C22.1094 21.9096 24.6826 23.2604 27.4779 23.773C30.2732 24.2855 33.1582 23.9357 35.75 22.77Z" fill="#CFF09E"/>
<path d="M23 7C21.0222 7 19.0888 7.58649 17.4443 8.6853C15.7998 9.78412 14.5181 11.3459 13.7612 13.1732C13.0043 15.0004 12.8063 17.0111 13.1922 18.9509C13.578 20.8907 14.5304 22.6725 15.9289 24.0711C17.3275 25.4696 19.1093 26.422 21.0491 26.8079C22.9889 27.1937 24.9996 26.9957 26.8268 26.2388C28.6541 25.4819 30.2159 24.2002 31.3147 22.5557C32.4135 20.9112 33 18.9778 33 17C33 14.3478 31.9464 11.8043 30.0711 9.92893C28.1957 8.05357 25.6522 7 23 7V7ZM29.65 24C26.0588 23.9079 22.6402 22.4402 20.1 19.9C17.5598 17.3598 16.0921 13.9412 16 10.35C17.9047 9.24414 20.1215 8.79897 22.3054 9.08378C24.4894 9.36859 26.5179 10.3674 28.0752 11.9248C29.6326 13.4821 30.6314 15.5106 30.9162 17.6946C31.201 19.8785 30.7559 22.0953 29.65 24V24Z" fill="#CFF09E"/>
<path d="M53 28H7C5.93913 28 4.92172 27.5786 4.17157 26.8284C3.42143 26.0783 3 25.0609 3 24V57C3 58.0609 3.42143 59.0783 4.17157 59.8284C4.92172 60.5786 5.93913 61 7 61H53C54.0609 61 55.0783 60.5786 55.8284 59.8284C56.5786 59.0783 57 58.0609 57 57V32C57 30.9391 56.5786 29.9217 55.8284 29.1716C55.0783 28.4214 54.0609 28 53 28Z" fill="#A8DBA8"/>
<path d="M58 39H50C48.3431 39 47 40.3431 47 42V46C47 47.6569 48.3431 49 50 49H58C59.6569 49 61 47.6569 61 46V42C61 40.3431 59.6569 39 58 39Z" fill="white"/>
<path d="M23 41.5C24.3807 41.5 25.5 40.3807 25.5 39C25.5 37.6193 24.3807 36.5 23 36.5C21.6193 36.5 20.5 37.6193 20.5 39C20.5 40.3807 21.6193 41.5 23 41.5Z" fill="#CFF09E"/>
<path d="M23 49.5C24.3807 49.5 25.5 48.3807 25.5 47C25.5 45.6193 24.3807 44.5 23 44.5C21.6193 44.5 20.5 45.6193 20.5 47C20.5 48.3807 21.6193 49.5 23 49.5Z" fill="#CFF09E"/>
<path d="M13 47.5C14.3807 47.5 15.5 46.3807 15.5 45C15.5 43.6193 14.3807 42.5 13 42.5C11.6193 42.5 10.5 43.6193 10.5 45C10.5 46.3807 11.6193 47.5 13 47.5Z" fill="#CFF09E"/>
<path d="M19 56.5C20.3807 56.5 21.5 55.3807 21.5 54C21.5 52.6193 20.3807 51.5 19 51.5C17.6193 51.5 16.5 52.6193 16.5 54C16.5 55.3807 17.6193 56.5 19 56.5Z" fill="#CFF09E"/>
<path d="M35 54.5C36.3807 54.5 37.5 53.3807 37.5 52C37.5 50.6193 36.3807 49.5 35 49.5C33.6193 49.5 32.5 50.6193 32.5 52C32.5 53.3807 33.6193 54.5 35 54.5Z" fill="#CFF09E"/>
<path d="M35 46.5C36.3807 46.5 37.5 45.3807 37.5 44C37.5 42.6193 36.3807 41.5 35 41.5C33.6193 41.5 32.5 42.6193 32.5 44C32.5 45.3807 33.6193 46.5 35 46.5Z" fill="#CFF09E"/>
<path d="M41 37.5C42.3807 37.5 43.5 36.3807 43.5 35C43.5 33.6193 42.3807 32.5 41 32.5C39.6193 32.5 38.5 33.6193 38.5 35C38.5 36.3807 39.6193 37.5 41 37.5Z" fill="#CFF09E"/>
<path d="M31 37.5C32.3807 37.5 33.5 36.3807 33.5 35C33.5 33.6193 32.3807 32.5 31 32.5C29.6193 32.5 28.5 33.6193 28.5 35C28.5 36.3807 29.6193 37.5 31 37.5Z" fill="#CFF09E"/>
<path d="M61 46C61 46.7956 60.6839 47.5587 60.1213 48.1213C59.5587 48.6839 58.7957 49 58 49H50C49.2044 49 48.4413 48.6839 47.8787 48.1213C47.3161 47.5587 47 46.7956 47 46V42C46.997 41.3799 47.1883 40.7745 47.547 40.2687C47.9057 39.763 48.4138 39.3822 49 39.18V40C49 41.5913 49.6321 43.1174 50.7574 44.2426C51.8826 45.3679 53.4087 46 55 46H61Z" fill="#CFF09E"/>
<path d="M25.5 12.184V11C25.5 10.7348 25.3946 10.4804 25.2071 10.2929C25.0196 10.1054 24.7652 10 24.5 10C24.2348 10 23.9804 10.1054 23.7929 10.2929C23.6054 10.4804 23.5 10.7348 23.5 11V12H21.5V11C21.5 10.7348 21.3946 10.4804 21.2071 10.2929C21.0196 10.1054 20.7652 10 20.5 10C20.2348 10 19.9804 10.1054 19.7929 10.2929C19.6054 10.4804 19.5 10.7348 19.5 11V23C19.5 23.2652 19.6054 23.5196 19.7929 23.7071C19.9804 23.8946 20.2348 24 20.5 24C20.7652 24 21.0196 23.8946 21.2071 23.7071C21.3946 23.5196 21.5 23.2652 21.5 23V22H23.5V23C23.5 23.2652 23.6054 23.5196 23.7929 23.7071C23.9804 23.8946 24.2348 24 24.5 24C24.7652 24 25.0196 23.8946 25.2071 23.7071C25.3946 23.5196 25.5 23.2652 25.5 23V21.816C25.9656 21.6549 26.3839 21.3806 26.7172 21.0177C27.0505 20.6548 27.2883 20.2148 27.4093 19.7371C27.5303 19.2595 27.5307 18.7593 27.4103 18.2815C27.29 17.8037 27.0528 17.3633 26.72 17C27.0528 16.6367 27.29 16.1963 27.4103 15.7185C27.5307 15.2407 27.5303 14.7405 27.4093 14.2629C27.2883 13.7852 27.0505 13.3452 26.7172 12.9823C26.3839 12.6194 25.9656 12.3451 25.5 12.184V12.184ZM24.5 14C24.7652 14 25.0196 14.1054 25.2071 14.2929C25.3946 14.4804 25.5 14.7348 25.5 15C25.5 15.2652 25.3946 15.5196 25.2071 15.7071C25.0196 15.8946 24.7652 16 24.5 16H21.5V14H24.5ZM24.5 20H21.5V18H24.5C24.7652 18 25.0196 18.1054 25.2071 18.2929C25.3946 18.4804 25.5 18.7348 25.5 19C25.5 19.2652 25.3946 19.5196 25.2071 19.7071C25.0196 19.8946 24.7652 20 24.5 20Z" fill="#3B8686"/>
<path d="M29 18C29.5523 18 30 17.5523 30 17C30 16.4477 29.5523 16 29 16C28.4477 16 28 16.4477 28 17C28 17.5523 28.4477 18 29 18Z" fill="#3B8686"/>
<path d="M17 18C17.5523 18 18 17.5523 18 17C18 16.4477 17.5523 16 17 16C16.4477 16 16 16.4477 16 17C16 17.5523 16.4477 18 17 18Z" fill="#3B8686"/>
<path d="M58 38V24C57.9984 22.6744 57.4711 21.4036 56.5338 20.4662C55.5964 19.5289 54.3256 19.0016 53 19H50.159C51.0691 16.9285 51.2486 14.6093 50.6681 12.4224C50.0876 10.2355 48.7815 8.31065 46.9637 6.96327C45.146 5.61588 42.9246 4.92588 40.6634 5.00631C38.4022 5.08675 36.2354 5.93287 34.518 7.406C32.4456 4.88679 29.6067 3.11385 26.4335 2.35714C23.2604 1.60044 19.9269 1.90143 16.9406 3.21429C13.9544 4.52716 11.479 6.77995 9.89131 9.62965C8.30367 12.4793 7.69079 15.7698 8.146 19H7C5.6744 19.0016 4.40356 19.5289 3.46622 20.4662C2.52888 21.4036 2.00159 22.6744 2 24V57C2.00159 58.3256 2.52888 59.5964 3.46622 60.5338C4.40356 61.4711 5.6744 61.9984 7 62H53C54.3256 61.9984 55.5964 61.4711 56.5338 60.5338C57.4711 59.5964 57.9984 58.3256 58 57V50C59.0609 50 60.0783 49.5786 60.8284 48.8284C61.5786 48.0783 62 47.0609 62 46V42C62 40.9391 61.5786 39.9217 60.8284 39.1716C60.0783 38.4214 59.0609 38 58 38ZM53 21C53.7956 21 54.5587 21.3161 55.1213 21.8787C55.6839 22.4413 56 23.2044 56 24V28.026C55.1396 27.3642 54.0855 27.0037 53 27H34.138C35.0051 26.0456 35.7446 24.9828 36.338 23.838C37.7737 24.6005 39.3744 24.9994 41 25H53C53.2652 25 53.5196 24.8946 53.7071 24.7071C53.8946 24.5196 54 24.2652 54 24C54 23.7348 53.8946 23.4804 53.7071 23.2929C53.5196 23.1054 53.2652 23 53 23H46.974C47.7338 22.4311 48.4094 21.7578 48.981 21H53ZM31 34C31.1978 34 31.3911 34.0587 31.5556 34.1685C31.72 34.2784 31.8482 34.4346 31.9239 34.6173C31.9996 34.8 32.0194 35.0011 31.9808 35.1951C31.9422 35.3891 31.847 35.5673 31.7071 35.7071C31.5673 35.847 31.3891 35.9422 31.1951 35.9808C31.0011 36.0194 30.8 35.9996 30.6173 35.9239C30.4346 35.8482 30.2784 35.72 30.1685 35.5556C30.0586 35.3911 30 35.1978 30 35C30 34.7348 30.1054 34.4804 30.2929 34.2929C30.4804 34.1054 30.7348 34 31 34ZM37.477 13.135C37.8084 12.51 38.2999 11.9842 38.9011 11.6114C39.5024 11.2387 40.1919 11.0323 40.8991 11.0134C41.6062 10.9945 42.3058 11.1638 42.9261 11.504C43.5464 11.8441 44.0652 12.343 44.4294 12.9494C44.7937 13.5558 44.9904 14.2482 44.9993 14.9555C45.0083 15.6629 44.8292 16.36 44.4803 16.9754C44.1315 17.5909 43.6255 18.1026 43.014 18.4584C42.4025 18.8141 41.7074 19.001 41 19C40.4212 19.0005 39.8494 18.8735 39.3252 18.6281C38.801 18.3827 38.3373 18.0248 37.967 17.58C37.975 17.386 38 17.195 38 17C37.9952 15.6944 37.8194 14.395 37.477 13.135V13.135ZM41 7C42.2238 6.99321 43.4329 7.2673 44.5342 7.80118C45.6354 8.33505 46.5995 9.11447 47.3523 10.0795C48.105 11.0444 48.6263 12.1693 48.876 13.3674C49.1258 14.5655 49.0973 15.8049 48.7928 16.9902C48.4883 18.1756 47.9159 19.2753 47.1197 20.2047C46.3235 21.1341 45.3246 21.8685 44.2 22.3512C43.0754 22.834 41.855 23.0523 40.6328 22.9893C39.4105 22.9263 38.2191 22.5838 37.15 21.988C37.3744 21.3345 37.5532 20.6662 37.685 19.988C38.635 20.6241 39.7469 20.9755 40.8898 21.0009C42.0328 21.0263 43.1592 20.7247 44.1365 20.1315C45.1138 19.5383 45.9013 18.6782 46.4062 17.6525C46.9112 16.6268 47.1126 15.4782 46.9867 14.3419C46.8609 13.2057 46.4131 12.129 45.6959 11.2386C44.9788 10.3483 44.0222 9.68138 42.9388 9.31638C41.8554 8.95139 40.6902 8.90352 39.5805 9.17841C38.4708 9.4533 37.4628 10.0395 36.675 10.868C36.3885 10.2349 36.0584 9.6224 35.687 9.035C37.1433 7.71961 39.0376 6.99408 41 7ZM23 4C25.6761 3.99519 28.2882 4.81783 30.4786 6.35523C32.669 7.89264 34.3305 10.0696 35.2356 12.588C36.1407 15.1064 36.2451 17.843 35.5344 20.423C34.8238 23.003 33.3329 25.3002 31.266 27H27.556C29.8429 25.9594 31.7045 24.1672 32.8315 21.9217C33.9584 19.6761 34.2826 17.1124 33.7502 14.6569C33.2178 12.2015 31.8609 10.0023 29.9051 8.42515C27.9493 6.84798 25.5125 5.98787 23 5.98787C20.4875 5.98787 18.0507 6.84798 16.0949 8.42515C14.1391 10.0023 12.7822 12.2015 12.2498 14.6569C11.7174 17.1124 12.0416 19.6761 13.1685 21.9217C14.2954 24.1672 16.1571 25.9594 18.444 27H14.734C12.6671 25.3002 11.1762 23.003 10.4656 20.423C9.75495 17.843 9.85932 15.1064 10.7644 12.588C11.6695 10.0696 13.331 7.89264 15.5214 6.35523C17.7118 4.81783 20.3239 3.99519 23 4V4ZM23 26C21.22 26 19.4799 25.4722 17.9999 24.4832C16.5198 23.4943 15.3663 22.0887 14.6851 20.4442C14.0039 18.7996 13.8257 16.99 14.1729 15.2442C14.5202 13.4984 15.3774 11.8947 16.636 10.636C17.8947 9.37737 19.4984 8.5202 21.2442 8.17294C22.99 7.82567 24.7996 8.0039 26.4442 8.68509C28.0887 9.36628 29.4943 10.5198 30.4832 11.9999C31.4722 13.4799 32 15.22 32 17C31.9974 19.3861 31.0483 21.6738 29.361 23.361C27.6738 25.0483 25.3861 25.9974 23 26V26ZM7 21H8.562C9.17936 23.2299 10.3094 25.2845 11.862 27H7C6.20435 27 5.44129 26.6839 4.87868 26.1213C4.31607 25.5587 4 24.7957 4 24C4 23.2044 4.31607 22.4413 4.87868 21.8787C5.44129 21.3161 6.20435 21 7 21V21ZM56 57C56 57.7957 55.6839 58.5587 55.1213 59.1213C54.5587 59.6839 53.7956 60 53 60H52V53C52 52.7348 51.8946 52.4804 51.7071 52.2929C51.5196 52.1054 51.2652 52 51 52H44.414L37.7 45.285C37.8957 44.8848 37.9983 44.4455 38 44C38 43.4067 37.8241 42.8266 37.4944 42.3333C37.1648 41.8399 36.6962 41.4554 36.148 41.2284C35.5999 41.0013 34.9967 40.9419 34.4147 41.0576C33.8328 41.1734 33.2982 41.4591 32.8787 41.8787C32.4591 42.2982 32.1734 42.8328 32.0576 43.4147C31.9419 43.9967 32.0013 44.5999 32.2284 45.1481C32.4554 45.6962 32.8399 46.1648 33.3333 46.4944C33.8266 46.8241 34.4067 47 35 47C35.4455 46.9983 35.8848 46.8957 36.285 46.7L43.293 53.708C43.4807 53.8952 43.7349 54.0002 44 54H50V60H48V57C48 56.7348 47.8946 56.4804 47.7071 56.2929C47.5196 56.1054 47.2652 56 47 56H40.414L37.7 53.285C37.8953 52.8847 37.9978 52.4454 38 52C38 51.4067 37.8241 50.8266 37.4944 50.3333C37.1648 49.8399 36.6962 49.4554 36.148 49.2284C35.5999 49.0013 34.9967 48.9419 34.4147 49.0576C33.8328 49.1734 33.2982 49.4591 32.8787 49.8787C32.4591 50.2982 32.1734 50.8328 32.0576 51.4147C31.9419 51.9967 32.0013 52.5999 32.2284 53.1481C32.4554 53.6962 32.8399 54.1648 33.3333 54.4944C33.8266 54.8241 34.4067 55 35 55C35.4457 54.9977 35.8852 54.8951 36.286 54.7L39.293 57.708C39.4807 57.8952 39.7349 58.0002 40 58H46V60H7C6.38174 59.9974 5.77937 59.8039 5.2753 59.4459C4.77123 59.0879 4.39008 58.5829 4.184 58H7C7.26519 57.9999 7.51951 57.8946 7.707 57.707L10.414 55H16.184C16.4199 55.6672 16.8841 56.2296 17.4945 56.5876C18.1049 56.9457 18.8222 57.0765 19.5197 56.9568C20.2172 56.8371 20.85 56.4747 21.3061 55.9337C21.7622 55.3926 22.0124 54.7077 22.0124 54C22.0124 53.2923 21.7622 52.6074 21.3061 52.0663C20.85 51.5253 20.2172 51.1629 19.5197 51.0432C18.8222 50.9235 18.1049 51.0543 17.4945 51.4124C16.8841 51.7704 16.4199 52.3328 16.184 53H10C9.73481 53.0001 9.48049 53.1055 9.293 53.293L6.586 56H4V46H10.184C10.4199 46.6672 10.8841 47.2296 11.4945 47.5876C12.1049 47.9457 12.8222 48.0765 13.5197 47.9568C14.2172 47.8371 14.85 47.4747 15.3061 46.9337C15.7622 46.3926 16.0124 45.7077 16.0124 45C16.0124 44.2923 15.7622 43.6074 15.3061 43.0663C14.85 42.5253 14.2172 42.1629 13.5197 42.0432C12.8222 41.9235 12.1049 42.0543 11.4945 42.4124C10.8841 42.7704 10.4199 43.3328 10.184 44H4V28C4.59252 28.4411 5.27565 28.7451 6 28.89V38C6 38.2652 6.10536 38.5196 6.29289 38.7071C6.48043 38.8946 6.73478 39 7 39H13.586L20.3 45.715C20.1043 46.1152 20.0017 46.5545 20 47C20 47.5933 20.1759 48.1734 20.5056 48.6667C20.8352 49.1601 21.3038 49.5446 21.8519 49.7716C22.4001 49.9987 23.0033 50.0581 23.5853 49.9424C24.1672 49.8266 24.7018 49.5409 25.1213 49.1213C25.5409 48.7018 25.8266 48.1672 25.9424 47.5853C26.0581 47.0033 25.9987 46.4001 25.7716 45.852C25.5446 45.3038 25.1601 44.8352 24.6667 44.5056C24.1734 44.176 23.5933 44 23 44C22.5545 44.0017 22.1152 44.1043 21.715 44.3L14.707 37.292C14.5193 37.1048 14.2651 36.9998 14 37H8V29H10V34C10 34.2652 10.1054 34.5196 10.2929 34.7071C10.4804 34.8946 10.7348 35 11 35H17.586L20.3 37.715C20.1047 38.1154 20.0022 38.5546 20 39C20 39.5933 20.1759 40.1734 20.5056 40.6667C20.8352 41.1601 21.3038 41.5446 21.8519 41.7716C22.4001 41.9987 23.0033 42.0581 23.5853 41.9424C24.1672 41.8266 24.7018 41.5409 25.1213 41.1213C25.5409 40.7018 25.8266 40.1672 25.9424 39.5853C26.0581 39.0033 25.9987 38.4001 25.7716 37.852C25.5446 37.3038 25.1601 36.8352 24.6667 36.5056C24.1734 36.176 23.5933 36 23 36C22.5543 36.0023 22.1148 36.1049 21.714 36.3L18.707 33.292C18.5193 33.1048 18.2651 32.9998 18 33H12V29H30V32.184C29.3328 32.4199 28.7704 32.8841 28.4124 33.4945C28.0543 34.1049 27.9235 34.8222 28.0432 35.5197C28.1629 36.2172 28.5253 36.85 29.0663 37.3061C29.6074 37.7623 30.2923 38.0124 31 38.0124C31.7077 38.0124 32.3926 37.7623 32.9337 37.3061C33.4747 36.85 33.8371 36.2172 33.9568 35.5197C34.0765 34.8222 33.9457 34.1049 33.5876 33.4945C33.2296 32.8841 32.6672 32.4199 32 32.184V29H53C53.6183 29.0026 54.2206 29.1961 54.7247 29.5541C55.2288 29.9121 55.6099 30.4171 55.816 31H50C49.8354 31 49.6734 31.0406 49.5282 31.1182C49.3831 31.1958 49.2593 31.3081 49.168 31.445L47.465 34H43.816C43.5801 33.3328 43.1159 32.7704 42.5055 32.4124C41.8951 32.0543 41.1778 31.9235 40.4803 32.0432C39.7828 32.1629 39.15 32.5253 38.6939 33.0663C38.2378 33.6074 37.9876 34.2923 37.9876 35C37.9876 35.7077 38.2378 36.3926 38.6939 36.9337C39.15 37.4747 39.7828 37.8371 40.4803 37.9568C41.1778 38.0765 41.8951 37.9457 42.5055 37.5876C43.1159 37.2296 43.5801 36.6672 43.816 36H48C48.1646 36 48.3266 35.9594 48.4718 35.8818C48.6169 35.8042 48.7407 35.6919 48.832 35.555L50.535 33H56V38H50C48.9391 38 47.9217 38.4214 47.1716 39.1716C46.4214 39.9217 46 40.9391 46 42V46C46 47.0609 46.4214 48.0783 47.1716 48.8284C47.9217 49.5786 48.9391 50 50 50H56V57ZM35 45C34.8022 45 34.6089 44.9414 34.4444 44.8315C34.28 44.7216 34.1518 44.5654 34.0761 44.3827C34.0004 44.2 33.9806 43.9989 34.0192 43.8049C34.0578 43.6109 34.153 43.4327 34.2929 43.2929C34.4327 43.153 34.6109 43.0578 34.8049 43.0192C34.9989 42.9806 35.2 43.0004 35.3827 43.0761C35.5654 43.1518 35.7216 43.28 35.8315 43.4444C35.9414 43.6089 36 43.8022 36 44C36 44.2652 35.8946 44.5196 35.7071 44.7071C35.5196 44.8946 35.2652 45 35 45ZM35 53C34.8022 53 34.6089 52.9414 34.4444 52.8315C34.28 52.7216 34.1518 52.5654 34.0761 52.3827C34.0004 52.2 33.9806 51.9989 34.0192 51.8049C34.0578 51.6109 34.153 51.4327 34.2929 51.2929C34.4327 51.153 34.6109 51.0578 34.8049 51.0192C34.9989 50.9806 35.2 51.0004 35.3827 51.0761C35.5654 51.1518 35.7216 51.28 35.8315 51.4444C35.9414 51.6089 36 51.8022 36 52C36 52.2652 35.8946 52.5196 35.7071 52.7071C35.5196 52.8946 35.2652 53 35 53ZM18 54C18 53.8022 18.0586 53.6089 18.1685 53.4444C18.2784 53.28 18.4346 53.1518 18.6173 53.0761C18.8 53.0004 19.0011 52.9806 19.1951 53.0192C19.3891 53.0578 19.5673 53.153 19.7071 53.2929C19.847 53.4327 19.9422 53.6109 19.9808 53.8049C20.0194 53.9989 19.9996 54.2 19.9239 54.3827C19.8482 54.5654 19.72 54.7216 19.5556 54.8315C19.3911 54.9414 19.1978 55 19 55C18.7348 55 18.4804 54.8946 18.2929 54.7071C18.1054 54.5196 18 54.2652 18 54ZM12 45C12 44.8022 12.0586 44.6089 12.1685 44.4444C12.2784 44.28 12.4346 44.1518 12.6173 44.0761C12.8 44.0004 13.0011 43.9806 13.1951 44.0192C13.3891 44.0578 13.5673 44.153 13.7071 44.2929C13.847 44.4327 13.9422 44.6109 13.9808 44.8049C14.0194 44.9989 13.9996 45.2 13.9239 45.3827C13.8482 45.5654 13.72 45.7216 13.5556 45.8315C13.3911 45.9414 13.1978 46 13 46C12.7348 46 12.4804 45.8946 12.2929 45.7071C12.1054 45.5196 12 45.2652 12 45ZM23 46C23.1978 46 23.3911 46.0587 23.5556 46.1685C23.72 46.2784 23.8482 46.4346 23.9239 46.6173C23.9996 46.8 24.0194 47.0011 23.9808 47.1951C23.9422 47.3891 23.847 47.5673 23.7071 47.7071C23.5673 47.847 23.3891 47.9422 23.1951 47.9808C23.0011 48.0194 22.8 47.9996 22.6173 47.9239C22.4346 47.8482 22.2784 47.72 22.1685 47.5556C22.0586 47.3911 22 47.1978 22 47C22 46.7348 22.1054 46.4804 22.2929 46.2929C22.4804 46.1054 22.7348 46 23 46ZM23 38C23.1978 38 23.3911 38.0587 23.5556 38.1685C23.72 38.2784 23.8482 38.4346 23.9239 38.6173C23.9996 38.8 24.0194 39.0011 23.9808 39.1951C23.9422 39.3891 23.847 39.5673 23.7071 39.7071C23.5673 39.847 23.3891 39.9422 23.1951 39.9808C23.0011 40.0194 22.8 39.9996 22.6173 39.9239C22.4346 39.8482 22.2784 39.72 22.1685 39.5556C22.0586 39.3911 22 39.1978 22 39C22 38.7348 22.1054 38.4804 22.2929 38.2929C22.4804 38.1054 22.7348 38 23 38ZM42 35C42 35.1978 41.9414 35.3911 41.8315 35.5556C41.7216 35.72 41.5654 35.8482 41.3827 35.9239C41.2 35.9996 40.9989 36.0194 40.8049 35.9808C40.6109 35.9422 40.4327 35.847 40.2929 35.7071C40.153 35.5673 40.0578 35.3891 40.0192 35.1951C39.9806 35.0011 40.0004 34.8 40.0761 34.6173C40.1518 34.4346 40.28 34.2784 40.4444 34.1685C40.6089 34.0587 40.8022 34 41 34C41.2652 34 41.5196 34.1054 41.7071 34.2929C41.8946 34.4804 42 34.7348 42 35ZM60 46C60 46.5304 59.7893 47.0391 59.4142 47.4142C59.0391 47.7893 58.5304 48 58 48H50C49.4696 48 48.9609 47.7893 48.5858 47.4142C48.2107 47.0391 48 46.5304 48 46V42C48 41.4696 48.2107 40.9609 48.5858 40.5858C48.9609 40.2107 49.4696 40 50 40H58C58.5304 40 59.0391 40.2107 59.4142 40.5858C59.7893 40.9609 60 41.4696 60 42V46Z" fill="#3B8686"/>
<path d="M51 45C51.5523 45 52 44.5523 52 44C52 43.4477 51.5523 43 51 43C50.4477 43 50 43.4477 50 44C50 44.5523 50.4477 45 51 45Z" fill="#3B8686"/>
</svg>
